<svg width="32" height="32" viewBox="0 0 32 32" fill="none" xmlns="http://www.w3.org/2000/svg">
<path d="M9.055 14.6744L11.6235 8.80641C13.4032 4.74064 14.293 2.70775 15.1966 2.66801C15.4538 2.6567 15.7094 2.71655 15.9382 2.8417C16.7419 3.28134 16.7419 5.52265 16.7419 10.0053C16.7419 11.1989 16.7419 11.7957 17.0314 12.2121C17.1197 12.3392 17.2255 12.4515 17.3453 12.5451C17.738 12.8522 18.3006 12.8522 19.4259 12.8522H20.2533C22.3454 12.8522 23.3915 12.8522 23.829 13.5793C24.2665 14.3064 23.826 15.3128 22.945 17.3255L20.3765 23.1935C18.5968 27.2593 17.707 29.2922 16.8034 29.332C16.5462 29.3433 16.2906 29.2834 16.0618 29.1583C15.2581 28.7186 15.2581 26.4773 15.2581 21.9947C15.2581 20.8011 15.2581 20.2043 14.9686 19.7878C14.8803 19.6607 14.7745 19.5485 14.6547 19.4548C14.262 19.1478 13.6994 19.1478 12.5741 19.1478H11.7467C9.65461 19.1478 8.60855 19.1478 8.17101 18.4206C7.73347 17.6935 8.17398 16.6871 9.055 14.6744Z" fill="#C2C6CC"/>
</svg>
