<svg width="40" height="40" viewBox="0 0 40 40" fill="none" xmlns="http://www.w3.org/2000/svg">
<path fill-rule="evenodd" clip-rule="evenodd" d="M20 36.6667C29.2047 36.6667 36.6666 29.2047 36.6666 20C36.6666 10.7952 29.2047 3.33332 20 3.33332C10.7952 3.33332 3.3333 10.7952 3.3333 20C3.3333 29.2047 10.7952 36.6667 20 36.6667ZM22.5065 17.2265L21.8491 16.7882C19.5678 15.2674 18.4272 14.507 17.547 14.9781C16.6667 15.4492 16.6667 16.82 16.6667 19.5617V20.4383C16.6667 23.18 16.6667 24.5508 17.547 25.0219C18.4272 25.493 19.5678 24.7326 21.8491 23.2118L22.5065 22.7735C24.388 21.5192 25.3288 20.892 25.3288 20C25.3288 19.108 24.388 18.4809 22.5065 17.2265Z" fill="#1A222F"/>
</svg>
